<svg width="235" height="107" viewBox="0 0 235 107" fill="none" xmlns="http://www.w3.org/2000/svg">
<path d="M42.5705 2.55835V4.2936L37.8765 4.29908L37.9403 52.0072C37.9458 57.1344 37.6722 61.1578 37.1223 64.0767C36.5702 66.9901 35.5636 69.5567 34.1009 71.7695C31.2786 76.2532 26.6906 78.4921 20.3267 78.4998C15.6299 78.5053 11.8649 77.2284 9.03756 74.6719C5.24634 71.2037 3.34248 66.4824 3.33743 60.497C3.33238 57.1805 4.06262 54.4408 5.52265 52.2755C7.13415 49.8607 9.10181 48.6496 11.4247 48.6473C13.3947 48.6446 14.9984 49.4219 16.2381 50.9817C17.4751 52.5374 18.0993 54.5463 18.102 57.0101C18.1048 59.524 17.4755 61.6231 16.2142 63.3099C14.9557 64.9962 13.3653 65.8399 11.4486 65.8426C9.68013 65.8426 7.7345 64.7933 5.61307 62.6833C5.61583 65.1475 6.19966 67.4814 7.36272 69.6942C8.37708 71.7032 9.84261 73.3635 11.7621 74.6669C13.6816 75.9726 15.6038 76.6229 17.521 76.6179C20.0458 76.6124 21.8382 75.3803 22.8948 72.9166C23.6489 71.2087 24.0229 67.0112 24.0151 60.3202L23.9376 4.31462L17.6532 4.32559V2.59125L42.5705 2.55835Z" fill="#B4A269"/>
<path d="M63.2476 1.89564C69.4577 1.88787 73.8065 5.08006 76.2892 11.4603C78.4666 16.9361 79.5654 26.2376 79.5815 39.3591C79.6003 53.8379 78.3257 63.7193 75.7581 68.9986C72.7871 75.0366 68.4727 78.0611 62.8175 78.0688C57.2129 78.0743 53.0416 74.952 50.3098 68.6975C47.5724 62.4424 46.1973 52.8531 46.1789 39.9299C46.1601 24.6463 47.6128 14.541 50.5328 9.60578C53.5066 4.47361 57.7439 1.90387 63.2476 1.89564ZM59.0979 12.7623L59.1668 67.2913C59.1723 70.7567 59.4403 73.1336 59.9709 74.4128C60.5047 75.6979 61.5002 76.3372 62.9658 76.3322C64.3808 76.3322 65.353 75.6897 65.8813 74.4078C66.4072 73.1227 66.6725 70.7462 66.667 67.2808L66.5954 12.7545C66.5899 9.28359 66.3219 6.89665 65.7885 5.58916C65.2575 4.28487 64.2858 3.63181 62.8708 3.63181C61.4052 3.63455 60.4097 4.29264 59.8814 5.60013C59.3527 6.90396 59.0924 9.2941 59.0979 12.7623Z" fill="#B4A269"/>
<path d="M115.814 2.65971L115.854 33.2791L114.187 33.2818C112.355 22.2725 110.515 14.5811 108.667 10.2099C106.816 5.83772 104.48 3.6537 101.65 3.65918C99.3262 3.66192 98.1686 5.92501 98.1769 10.448L98.2434 62.1837C98.2517 67.8675 98.5092 71.5999 99.0164 73.3817C99.5208 75.1691 100.559 76.057 102.125 76.0543C104.347 76.0516 106.517 74.4178 108.633 71.1451C112.36 65.4084 114.218 57.2874 114.206 46.7781L114.2 42.3278L115.865 42.3255L115.87 46.9307C115.884 56.8336 114.102 64.9811 110.525 71.3677C108.109 75.7984 104.576 78.0135 99.9293 78.019C94.6271 78.0295 90.8625 75.1403 88.635 69.3642C86.4048 63.5854 85.279 53.8068 85.2629 40.0313C85.2445 26.9587 86.4815 17.3296 88.9747 11.1408C91.4651 4.95342 95.3362 1.85675 100.588 1.84853C102.558 1.84578 104.084 2.19768 105.17 2.90055C106.256 3.60251 107.788 5.23493 109.758 7.79508L114.147 2.66017H115.814V2.65971Z" fill="#B4A269"/>
<path d="M135.43 2.59534L135.48 41.1702L145.97 12.6485C146.824 10.3365 147.252 8.72652 147.252 7.82256C147.249 5.51057 145.505 4.35435 142.021 4.35938H140.962L140.959 2.62778L157.094 2.60539V4.34155H155.352C153.385 4.34384 151.916 4.92561 150.961 6.08229C150.005 7.24034 148.77 9.93118 147.262 14.1571L142.961 25.851L159.384 75.3807L163.02 75.3757L163.022 77.1096L142.721 77.1333V75.4017L146.054 75.3963L135.479 41.1702L135.524 75.4072H139.162V77.1388L119.624 77.1653L119.618 75.431L123.255 75.426L123.164 4.34384L119.526 4.34932L119.523 2.61636L135.43 2.59534Z" fill="#B4A269"/>
<path d="M195.173 46.4482C195.183 54.4422 194.458 60.9284 193.001 65.9061C191.846 69.7313 190.044 72.6895 187.598 74.7752C185.153 76.8665 182.288 77.9135 179.002 77.9185C173.299 77.924 169.167 74.926 166.611 68.9224C164.049 62.9137 162.764 53.1507 162.745 39.6265C162.726 25.2985 164.104 15.3426 166.873 9.75848C169.491 4.42524 173.503 1.75358 178.906 1.74856C182.44 1.74307 185.318 2.82343 187.546 4.9805C190.426 7.84226 192.478 11.9238 193.697 17.2269C194.913 22.5299 195.556 30.1852 195.619 40.1877L175.775 40.2156L175.81 66.2324C175.815 70.8587 176.097 73.6739 176.654 74.6783C177.308 75.7834 178.446 76.3332 180.064 76.3332C182.084 76.3277 184.128 75.4607 186.197 73.7214C188.262 71.9843 189.775 69.8615 190.731 67.3448C192.494 62.6655 193.392 55.7012 193.432 46.4514L195.173 46.4482ZM175.772 38.479L183.121 38.4707L183.084 10.4888C183.079 7.87562 182.811 6.05172 182.28 5.02574C181.749 3.99337 180.801 3.47923 179.437 3.48198C178.024 3.48198 177.056 3.9856 176.524 4.99284C175.993 6.00007 175.733 7.83586 175.735 10.4993L175.772 38.479Z" fill="#B4A269"/>
<path d="M195.494 2.55552L215.566 2.53176V4.26335L211.931 4.26609L218.975 60.82L224.895 16.5431C225.346 13.276 225.57 10.9375 225.57 9.52988C225.567 6.01003 224.378 4.25055 222.006 4.2533L220.339 4.25604L220.336 2.52308L232.302 2.50708L232.305 4.24233C230.439 4.49642 229.252 5.06448 228.745 5.94239C228.245 6.82532 227.741 9.30229 227.244 13.3733L217.941 82.6928C215.939 97.476 211.609 104.872 204.945 104.883C202.417 104.886 200.373 103.981 198.804 102.176C197.237 100.368 196.452 98.0043 196.446 95.0913C196.443 92.5746 197.059 90.4756 198.293 88.7887C199.528 87.1024 201.102 86.2588 203.025 86.256C204.488 86.2533 205.677 86.8085 206.588 87.9136C207.497 89.0159 207.953 90.4751 207.956 92.2835C207.958 94.2925 207.419 96.0163 206.336 97.454C205.25 98.8872 203.952 99.6061 202.439 99.6115C201.985 99.6115 201.151 99.506 199.938 99.3104C200.543 101.819 202.189 103.074 204.865 103.072C210.42 103.064 214.147 96.0716 216.048 82.0922L216.645 77.0405L208.617 77.051L199.434 4.28574L195.496 4.29123L195.494 2.55552Z" fill="#B4A269"/>
<path d="M115.814 99.778H110.501L104.082 93.7798H100.561V99.778H96.916V83.9139H110.565C112.952 83.9139 114.144 84.9395 114.144 86.991V90.7078C114.144 92.2438 113.528 93.198 112.293 93.5682C111.821 93.7085 110.544 93.7798 108.465 93.7798L115.814 99.778ZM110.565 89.8143V87.9109C110.565 87.3771 110.406 87.0307 110.104 86.8639C109.875 86.7209 109.474 86.6523 108.898 86.6523H100.561V91.0775H108.898C109.474 91.0775 109.875 91.0035 110.104 90.8609C110.406 90.6973 110.565 90.3486 110.565 89.8143Z" fill="#B4A269"/>
<path d="M138.135 99.7752H121.679V83.9139H137.978V86.6212H125.383V90.1553H132.732V92.8598H125.383V96.7933H138.135V99.7752Z" fill="#B4A269"/>
<path d="M164.345 91.7548C164.345 94.8295 163.172 97.0921 160.825 98.5463C159.487 99.3657 157.307 99.7752 154.28 99.7752H144.988V83.9139H155.236C157.995 83.9139 160.156 84.5272 161.72 85.7593C163.469 87.1125 164.345 89.1083 164.345 91.7548ZM160.517 91.6912C160.517 88.3921 158.765 86.7423 155.268 86.7423H148.691V96.7933H153.479C155.744 96.7933 157.387 96.5076 158.417 95.9313C159.816 95.1544 160.517 93.74 160.517 91.6912Z" fill="#B4A269"/>
</svg>
